<?xml version="1.0" encoding="UTF-8" standalone="no"?>
<svg width="773px" height="372px" viewBox="0 0 773 372" version="1.1" xmlns="http://www.w3.org/2000/svg" xmlns:xlink="http://www.w3.org/1999/xlink" xmlns:sketch="http://www.bohemiancoding.com/sketch/ns">
    <!-- Generator: Sketch 3.2.1 (9971) - http://www.bohemiancoding.com/sketch -->
    <title>Logo Final</title>
    <desc>Created with Sketch.</desc>
    <defs></defs>
    <g id="Logo" stroke="none" stroke-width="1" fill="none" fill-rule="evenodd" sketch:type="MSPage">
        <g id="Inverse" sketch:type="MSArtboardGroup" transform="translate(-117.000000, -93.000000)" fill="#FFFFFF">
            <g id="Logo-Final" sketch:type="MSLayerGroup" transform="translate(126.000000, 101.000000)">
                <g id="Icon" transform="translate(507.000000, 0.000000)" sketch:type="MSShapeGroup">
                    <g id="Group">
                        <path d="M246.676702,214.329186 L246.676702,173.12766 C245.868455,173.702425 245.060209,174.246938 244.187304,174.791452 C236.848429,179.389566 226.729188,183.412916 214.12055,186.77075 C189.743848,193.214161 157.575654,196.783749 123.5,196.783749 C89.4243455,196.783749 57.2561518,193.214161 32.8794503,186.77075 C20.2708115,183.412916 10.1515707,179.389566 2.81269634,174.791452 C1.93979058,174.246938 1.1315445,173.702425 0.323298429,173.12766 L0.323298429,246.999999 C0.323298429,246.999999 55.4780105,247 123.5,247 C191.52199,247 246.676702,232.358635 246.676702,214.329186 Z" id="Shape"></path>
                        <path d="M123.5,185.816552 C189.226571,185.816552 242.92644,172.173462 246.482723,154.960783 C246.612042,154.355768 246.676702,153.750753 246.676702,153.145738 L246.676702,111.641705 C245.868455,112.216469 245.060209,112.760983 244.187304,113.305496 C238.012304,117.177593 229.832853,120.656429 219.842932,123.651254 C218.000131,124.195767 216.09267,124.740281 214.12055,125.284794 C212.148429,125.799057 210.143979,126.31332 208.074869,126.797332 C203.290052,127.91661 198.278927,128.914885 193.041492,129.822407 C172.447382,133.391996 148.490969,135.297794 123.5,135.297794 C98.5090314,135.297794 74.5526178,133.391996 53.926178,129.822407 C48.6887435,128.914885 43.6776178,127.886359 38.892801,126.797332 C36.8236911,126.31332 34.8192408,125.829308 32.8471204,125.284794 C30.875,124.770532 28.9675393,124.226018 27.1247382,123.651254 C17.1348168,120.656429 8.95536649,117.177593 2.78036649,113.305496 C1.90746073,112.760983 1.09921466,112.216469 0.290968586,111.641705 L0.290968586,153.145738 C0.290968586,153.750753 0.355628272,154.355768 0.484947644,154.960783 C4.07356021,172.173462 57.7734293,185.816552 123.5,185.816552 L123.5,185.816552 Z" id="Shape"></path>
                        <path d="M75.2962042,121.729031 C90.1032723,123.392823 106.397513,124.330596 123.5,124.330596 C140.602487,124.330596 156.896728,123.392823 171.703796,121.729031 C179.236649,120.88201 186.381545,119.823234 193.073822,118.613204 C223.528534,113.077316 244.154974,104.00209 246.482723,93.6260816 C246.644372,92.9605651 246.709031,92.3252992 246.709031,91.6597827 L246.709031,0.302507534 L123.53233,0.302507534 C55.5103403,0.302507534 0.355628272,14.9438722 0.355628272,32.9733212 L0.355628272,91.6597827 C0.355628272,92.3252992 0.420287958,92.9605651 0.581937173,93.6260816 C2.87735602,104.00209 23.471466,113.077316 53.926178,118.613204 C60.6184555,119.823234 67.7633508,120.88201 75.2962042,121.729031 Z" id="Shape"></path>
                    </g>
                </g>
                <path d="M56.352,331.712 C51.888,338.768 44.688,342.8 36.336,342.8 C22.944,342.8 13.44,332.72 13.44,314.576 C13.44,296.144 22.368,285.92 34.608,285.92 C36.912,285.92 39.648,286.208 42.384,287.072 L44.976,296.576 C45.984,300.608 48,303.488 52.896,303.488 C56.496,303.488 58.8,301.76 59.52,298.016 C57.648,287.36 46.992,279.296 34.032,279.296 C16.752,279.296 0.768,293.264 0.768,316.016 C0.768,338.192 13.296,352.16 33.024,352.16 C46.56,352.16 55.92,345.536 59.952,333.584 L56.352,331.712 Z M86.48,342.8 C86.336,335.168 86.192,327.392 86.192,319.76 L86.192,266.624 L86.768,246.176 L84.752,245.024 L62.288,251.504 L62.288,256.544 L74.096,257.984 L74.096,319.76 C74.096,327.392 73.952,335.024 73.808,342.8 L62.288,344.816 L62.288,350 L98,350 L98,344.816 L86.48,342.8 Z M119.632,263.888 C124.96,263.888 129.28,260 129.28,254.672 C129.28,249.056 124.96,245.456 119.632,245.456 C114.16,245.456 109.984,249.056 109.984,254.672 C109.984,260 114.16,263.888 119.632,263.888 L119.632,263.888 Z M126.112,342.8 C125.968,335.6 125.824,326.096 125.824,319.76 L125.824,300.32 L126.256,280.736 L124.096,279.296 L101.776,288.08 L101.776,293.12 L113.152,294.416 C113.44,300.176 113.584,304.64 113.584,312.56 L113.584,319.76 C113.584,326.24 113.44,335.6 113.296,342.8 L102.64,344.816 L102.64,350 L136.048,350 L136.048,344.816 L126.112,342.8 Z M252,342.8 C251.856,335.6 251.712,326.384 251.712,319.76 L251.712,304.496 C251.712,286.64 244.944,279.296 233.28,279.296 C224.064,279.296 214.56,283.76 207.072,292.832 C204.768,283.328 199.152,279.296 190.08,279.296 C181.296,279.296 171.792,284.624 164.88,292.256 L163.728,280.736 L161.568,279.296 L141.408,288.08 L141.408,293.12 L152.784,294.416 C153.072,300.176 153.216,304.496 153.216,312.416 L153.216,319.76 C153.216,326.24 153.072,335.6 152.928,342.8 L142.272,344.816 L142.272,350 L175.68,350 L175.68,344.816 L165.744,342.8 C165.6,335.6 165.456,326.096 165.456,319.76 L165.456,298.304 C172.512,292.256 177.984,289.664 184.608,289.664 C193.104,289.664 196.416,293.984 196.416,307.088 L196.416,319.76 C196.416,326.384 196.272,335.744 196.128,342.8 L185.472,344.816 L185.472,350 L218.88,350 L218.88,344.816 L208.8,342.8 C208.656,335.6 208.512,326.384 208.512,319.76 L208.512,305.936 C208.512,303.344 208.368,300.896 208.224,298.736 C215.568,292.112 221.472,289.664 227.52,289.664 C235.872,289.664 239.616,293.408 239.616,306.8 L239.616,319.76 C239.616,326.384 239.472,335.744 239.328,342.8 L228.672,344.816 L228.672,350 L262.08,350 L262.08,344.816 L252,342.8 Z M308.912,334.736 C300.56,340.64 297.824,342.656 293.072,342.656 C289.616,342.656 286.592,341.648 284.432,339.344 C282.704,337.616 281.552,335.456 281.552,331.712 C281.552,327.392 283.136,321.776 295.664,316.88 C298.688,315.728 303.872,314 308.912,312.56 L308.912,334.736 Z M331.808,340.784 L331.088,341.504 C329.936,342.656 328.064,343.952 325.76,343.952 C322.592,343.952 321.008,341.36 321.008,335.456 L321.008,304.352 C321.008,286.208 313.808,279.296 298.688,279.296 C284,279.296 273.344,286.496 270.608,297.44 C271.04,301.184 273.344,303.632 277.376,303.632 C281.264,303.632 283.856,301.184 285.152,296.72 L288.032,286.784 C290.912,286.064 293.36,285.92 295.376,285.92 C304.88,285.92 308.912,289.376 308.912,303.344 L308.912,307.232 C303.152,308.528 297.104,310.4 292.64,311.984 C273.2,319.04 268.736,325.664 268.736,333.872 C268.736,345.824 277.52,352.16 288.032,352.16 C296.528,352.16 301.28,348.272 309.2,340.352 C310.352,347.12 314.816,351.44 323.024,351.44 C327.632,351.44 331.376,350 334.688,343.952 L331.808,340.784 Z M374.608,340.064 C371.008,342.656 368.128,343.952 364.96,343.952 C360.064,343.952 357.04,340.784 357.04,333.44 L357.04,289.52 L376.624,289.52 L376.624,281.888 L357.328,281.888 L358.048,262.016 L349.408,262.016 L345.664,281.6 L332.848,283.184 L332.848,289.52 L344.8,289.52 L344.8,322.784 C344.8,328.4 344.656,331.424 344.656,335.024 C344.656,346.256 350.992,351.44 361.072,351.44 C368.416,351.44 374.32,348.704 378.064,343.952 L374.608,340.064 Z M394.368,308.96 C395.952,292.256 405.312,285.92 413.376,285.92 C422.304,285.92 429.072,293.264 429.072,301.472 C429.072,305.648 427.488,308.96 420.576,308.96 L394.368,308.96 Z M440.016,315.008 C440.592,313.136 441.024,310.256 441.024,307.088 C441.024,289.664 429.216,279.296 414.24,279.296 C396.24,279.296 381.12,294.416 381.12,316.448 C381.12,338.48 393.792,352.16 413.232,352.16 C426.336,352.16 435.552,345.68 440.88,335.456 L437.424,332.72 C432.24,338.768 426.48,342.8 417.408,342.8 C403.44,342.8 394.368,332.72 394.08,315.008 L440.016,315.008 Z M481.808,293.696 C483.824,292.4 486.128,291.536 488.576,291.536 C496.208,291.536 501.248,297.872 501.248,314.288 C501.248,330.704 496.208,338.336 488.576,338.336 C485.84,338.336 483.68,337.616 481.808,336.32 L481.808,293.696 Z M481.376,269.216 L481.952,249.2 L479.504,247.616 L446.672,254.096 L446.672,260.576 L454.448,261.584 L454.448,319.76 C454.448,325.664 454.448,334.16 454.304,341.216 L447.824,342.656 L447.824,350 L477.344,352.88 L480.368,344.096 C484.976,349.28 490.736,352.16 499.088,352.16 C515.072,352.16 530.336,337.904 530.336,314.288 C530.336,289.664 517.664,277.28 501.824,277.28 C493.76,277.28 487.136,280.016 481.376,285.632 L481.376,269.216 Z M575.408,337.184 C572.96,338.912 571.088,339.632 569.36,339.632 C567.344,339.632 565.616,338.912 564.32,337.328 C562.592,335.312 561.872,333.152 561.872,329.12 C561.872,321.344 567.2,316.736 571.232,314.864 C572.384,314.288 573.824,313.712 575.408,313.28 L575.408,337.184 Z M608.24,337.616 L607.664,338.48 C606.512,340.208 605.504,340.784 604.352,340.784 C602.768,340.784 601.904,339.776 601.904,338.336 L601.904,305.36 C601.904,285.632 594.56,277.28 574.688,277.28 C551.504,277.28 539.552,286.064 539.552,298.448 C540.992,303.632 544.88,306.224 550.496,306.224 C556.688,306.224 562.304,301.616 562.304,289.952 L562.304,285.056 L564.464,285.056 C573.536,285.056 575.408,289.088 575.408,301.328 L575.408,306.512 L566.624,308.816 C543.296,315.008 537.104,322.496 537.104,333.584 C537.104,345.392 544.448,352.16 555.824,352.16 C566.192,352.16 570.656,348.128 576.272,341.936 C578.72,348.56 584.048,352.16 593.12,352.16 C603.344,352.16 608.96,348.704 612.416,339.92 L608.24,337.616 Z M648.416,301.76 C638.48,299.024 636.896,296.144 636.896,293.12 C636.896,288.224 641.072,285.776 646.544,285.776 C649.568,285.776 651.728,286.064 653.6,286.496 L656.768,299.312 L670.016,299.312 L671.168,283.04 C663.248,279.296 656.048,277.28 647.264,277.28 C626.528,277.28 615.152,287.792 615.152,302.192 C615.152,313.424 621.2,321.632 632.576,324.656 L640.784,326.816 C650.432,329.408 652.448,332.288 652.448,336.176 C652.448,341.648 648.128,343.664 640.928,343.664 C637.184,343.664 633.872,342.944 630.56,341.648 L628.256,326.672 L615.152,326.672 L614.432,345.104 C622.208,349.856 630.992,352.16 640.928,352.16 C661.952,352.16 675.344,343.808 675.344,326.816 C675.344,315.44 669.872,307.52 656.48,303.92 L648.416,301.76 Z M709.904,308.24 C710.336,290.384 713.648,285.056 717.968,285.056 C721.856,285.056 725.456,288.656 725.456,298.592 C725.456,305.936 723.584,308.24 716.672,308.24 L709.904,308.24 Z M744.176,329.84 C740.144,333.728 734.96,336.608 727.76,336.608 C719.264,336.608 711.488,330.56 710.048,316.448 L750.08,316.448 C750.656,313.856 750.8,311.84 750.8,308.816 C750.8,291.392 740.432,277.28 719.84,277.28 C700.976,277.28 681.104,289.664 681.104,314.432 C681.104,338.192 696.944,352.16 718.544,352.16 C732.8,352.16 743.6,346.976 749.792,335.312 L744.176,329.84 Z" id="climatebase" sketch:type="MSShapeGroup"></path>
            </g>
        </g>
    </g>
</svg>