<?xml version="1.0" encoding="UTF-8" standalone="no"?>
<svg width="754px" height="353px" viewBox="0 0 754 353" version="1.1" xmlns="http://www.w3.org/2000/svg" xmlns:xlink="http://www.w3.org/1999/xlink" xmlns:sketch="http://www.bohemiancoding.com/sketch/ns">
    <!-- Generator: Sketch 3.2.1 (9971) - http://www.bohemiancoding.com/sketch -->
    <title>Logo Final</title>
    <desc>Created with Sketch.</desc>
    <defs></defs>
    <g id="Logo" stroke="none" stroke-width="1" fill="none" fill-rule="evenodd" sketch:type="MSPage">
        <g id="Artboard-5" sketch:type="MSArtboardGroup" transform="translate(-126.000000, -101.000000)">
            <g id="Logo-Final" sketch:type="MSLayerGroup" transform="translate(120.000000, 101.000000)">
                <g id="Icon" transform="translate(513.000000, 0.000000)" sketch:type="MSShapeGroup">
                    <g id="Group">
                        <path d="M246.676702,214.329186 L246.676702,173.12766 C245.868455,173.702425 245.060209,174.246938 244.187304,174.791452 C236.848429,179.389566 226.729188,183.412916 214.12055,186.77075 C189.743848,193.214161 157.575654,196.783749 123.5,196.783749 C89.4243455,196.783749 57.2561518,193.214161 32.8794503,186.77075 C20.2708115,183.412916 10.1515707,179.389566 2.81269634,174.791452 C1.93979058,174.246938 1.1315445,173.702425 0.323298429,173.12766 L0.323298429,246.999999 C0.323298429,246.999999 55.4780105,247 123.5,247 C191.52199,247 246.676702,232.358635 246.676702,214.329186 Z" id="Shape" fill="#388E3C"></path>
                        <path d="M123.5,185.816552 C189.226571,185.816552 242.92644,172.173462 246.482723,154.960783 C246.612042,154.355768 246.676702,153.750753 246.676702,153.145738 L246.676702,111.641705 C245.868455,112.216469 245.060209,112.760983 244.187304,113.305496 C238.012304,117.177593 229.832853,120.656429 219.842932,123.651254 C218.000131,124.195767 216.09267,124.740281 214.12055,125.284794 C212.148429,125.799057 210.143979,126.31332 208.074869,126.797332 C203.290052,127.91661 198.278927,128.914885 193.041492,129.822407 C172.447382,133.391996 148.490969,135.297794 123.5,135.297794 C98.5090314,135.297794 74.5526178,133.391996 53.926178,129.822407 C48.6887435,128.914885 43.6776178,127.886359 38.892801,126.797332 C36.8236911,126.31332 34.8192408,125.829308 32.8471204,125.284794 C30.875,124.770532 28.9675393,124.226018 27.1247382,123.651254 C17.1348168,120.656429 8.95536649,117.177593 2.78036649,113.305496 C1.90746073,112.760983 1.09921466,112.216469 0.290968586,111.641705 L0.290968586,153.145738 C0.290968586,153.750753 0.355628272,154.355768 0.484947644,154.960783 C4.07356021,172.173462 57.7734293,185.816552 123.5,185.816552 L123.5,185.816552 Z" id="Shape" fill="#4BAE4F"></path>
                        <path d="M75.2962042,121.729031 C90.1032723,123.392823 106.397513,124.330596 123.5,124.330596 C140.602487,124.330596 156.896728,123.392823 171.703796,121.729031 C179.236649,120.88201 186.381545,119.823234 193.073822,118.613204 C223.528534,113.077316 244.154974,104.00209 246.482723,93.6260816 C246.644372,92.9605651 246.709031,92.3252992 246.709031,91.6597827 L246.709031,0.302507534 L123.53233,0.302507534 C55.5103403,0.302507534 0.355628272,14.9438722 0.355628272,32.9733212 L0.355628272,91.6597827 C0.355628272,92.3252992 0.420287958,92.9605651 0.581937173,93.6260816 C2.87735602,104.00209 23.471466,113.077316 53.926178,118.613204 C60.6184555,119.823234 67.7633508,120.88201 75.2962042,121.729031 Z" id="Shape" fill="#388E3C"></path>
                    </g>
                </g>
                <text id="climatebase" sketch:type="MSTextLayer" font-family="Source Serif Pro" font-size="144" font-weight="normal" letter-spacing="-4" fill="#424242">
                    <tspan x="0" y="350">climate</tspan>
                    <tspan x="449.792" y="350" font-weight="686">base</tspan>
                </text>
            </g>
        </g>
    </g>
</svg>